<svg width="48" height="48" viewBox="0 0 48 48" fill="none" xmlns="http://www.w3.org/2000/svg">
<path d="M32.2592 21.8999C29.5498 21.8999 29.1748 24.5999 29.1748 24.5999H34.9311C34.9311 24.5999 34.9686 21.8999 32.2592 21.8999Z" fill="#9E9E9E"/>
<path d="M19.2001 24.6001H14.1001V29.2876H18.947C19.6782 29.2689 21.047 29.0626 21.047 27.0095C21.047 24.572 19.2001 24.6001 19.2001 24.6001Z" fill="#9E9E9E"/>
<path d="M24 3C12.4031 3 3 12.4031 3 24C3 35.5969 12.4031 45 24 45C35.5969 45 45 35.5969 45 24C45 12.4031 35.5969 3 24 3ZM28.425 15.9H35.6531V18.0563H28.425V15.9ZM24.7688 27.225C24.7688 32.5687 19.2 32.4 19.2 32.4H10.0875V14.8688H19.2C21.975 14.8688 24.1594 16.3969 24.1594 19.5375C24.1594 22.6781 21.4875 22.875 21.4875 22.875C25.0125 22.875 24.7688 27.225 24.7688 27.225ZM38.2875 26.9344H29.2031C29.2031 30.1875 32.2875 29.9812 32.2875 29.9812C35.2031 29.9812 35.1 28.0969 35.1 28.0969H38.1844C38.1844 33.1031 32.1844 32.7562 32.1844 32.7562C24.9937 32.7562 25.4531 26.0531 25.4531 26.0531C25.4531 26.0531 25.4437 19.3219 32.1844 19.3219C39.2812 19.3313 38.2875 26.9344 38.2875 26.9344Z" fill="#9E9E9E"/>
<path d="M20.4376 19.8095C20.4376 17.9907 19.2001 17.9907 19.2001 17.9907H14.1001V21.9001H18.8813C19.7063 21.9001 20.4376 21.6282 20.4376 19.8095Z" fill="#9E9E9E"/>
</svg>
