<svg width="17" height="13" viewBox="0 0 17 13" fill="none" xmlns="http://www.w3.org/2000/svg">
<path d="M14.3912 1.07763C13.3077 0.57884 12.1458 0.211359 10.9309 0.000881927C10.9088 -0.00317696 10.8867 0.00697029 10.8753 0.0272792C10.7259 0.293924 10.5603 0.641782 10.4444 0.915194C9.13777 0.718937 7.83784 0.718937 6.55797 0.915194C6.44204 0.635701 6.2705 0.293924 6.1204 0.0272792C6.10901 0.00764918 6.0869 -0.00249807 6.06478 0.000881927C4.8506 0.210688 3.68868 0.578169 2.60449 1.07763C2.5951 1.08169 2.58706 1.08846 2.58172 1.09726C0.377819 4.40058 -0.225923 7.6227 0.0702524 10.8049C0.0715925 10.8205 0.0803036 10.8354 0.0923651 10.8448C1.54644 11.9162 2.95496 12.5665 4.33732 12.9976C4.35944 13.0044 4.38288 12.9963 4.39696 12.978C4.72396 12.53 5.01545 12.0576 5.26538 11.5608C5.28012 11.5317 5.26604 11.4972 5.23589 11.4857C4.77354 11.3098 4.33329 11.0952 3.9098 10.8516C3.87631 10.832 3.87362 10.7839 3.90444 10.7609C3.99356 10.6939 4.0827 10.6242 4.1678 10.5538C4.18319 10.541 4.20465 10.5382 4.22275 10.5463C7.0049 11.8208 10.0169 11.8208 12.7663 10.5463C12.7843 10.5376 12.8058 10.5403 12.8219 10.5531C12.907 10.6235 12.9961 10.6939 13.0859 10.7609C13.1167 10.7839 13.1147 10.832 13.0812 10.8516C12.6577 11.1 12.2175 11.3098 11.7544 11.4851C11.7243 11.4966 11.7109 11.5317 11.7256 11.5608C11.9809 12.0569 12.2724 12.5293 12.5934 12.9773C12.6068 12.9963 12.6309 13.0044 12.653 12.9976C14.0421 12.5665 15.4506 11.9162 16.9046 10.8448C16.9174 10.8354 16.9255 10.8211 16.9268 10.8056C17.2813 7.1266 16.3331 3.93091 14.4133 1.09793C14.4086 1.08846 14.4006 1.08169 14.3912 1.07763ZM5.68084 8.8673C4.84322 8.8673 4.15305 8.09575 4.15305 7.14827C4.15305 6.20079 4.82984 5.42931 5.68084 5.42931C6.53852 5.42931 7.22202 6.20757 7.20863 7.14827C7.20863 8.09575 6.53182 8.8673 5.68084 8.8673ZM11.3296 8.8673C10.492 8.8673 9.80183 8.09575 9.80183 7.14827C9.80183 6.20079 10.4786 5.42931 11.3296 5.42931C12.1873 5.42931 12.8708 6.20757 12.8574 7.14827C12.8574 8.09575 12.1873 8.8673 11.3296 8.8673Z" fill="white"/>
</svg>
