<svg width="15" height="11" viewBox="0 0 15 11" fill="none" xmlns="http://www.w3.org/2000/svg">
<path d="M15 1.50258V9.99992C15 10.5522 14.5425 10.9994 13.9775 10.9994H11.5906V5.33491L7.5 8.33454L3.40938 5.33491V11H1.0225C0.888171 11 0.755158 10.9741 0.631062 10.9239C0.506966 10.8736 0.394219 10.7999 0.299262 10.707C0.204306 10.6142 0.129003 10.5039 0.0776539 10.3826C0.0263052 10.2613 -8.19173e-05 10.1312 1.91032e-07 9.99992V1.50258C1.91032e-07 0.266687 1.44313 -0.438929 2.45438 0.302731L3.40938 1.00346L7.5 4.00187L11.5906 1.00224L12.5456 0.302731C13.5562 -0.438319 15 0.266687 15 1.50258Z" fill="white"/>
</svg>
